<svg xmlns="http://www.w3.org/2000/svg" viewBox="0 0 24 24">
  <path d="m7.374 15.182 7.85-7.849 1.413 1.414-7.848 7.85z"/>
  <path d="M10.6 20c-1.8 1.8-4.7 1.8-6.5 0-.9-.9-1.4-2-1.4-3.3s.5-2.4 1.4-3.3l3.8-3.8-1.4-1.4-4.2 4.2c-2.5 2.5-2.5 6.7 0 9.3 1.3 1.3 3 1.9 4.6 1.9s3.4-.6 4.6-1.9l4.2-4.2-1.4-1.4-3.8 3.8ZM21.7 2.3C20.5 1.1 18.8.4 17.1.4s-3.4.7-4.6 1.9L8.3 6.5l1.4 1.4 3.8-3.8c1.8-1.8 4.7-1.8 6.5 0 .9.9 1.4 2 1.4 3.3s-.5 2.4-1.4 3.3l-3.8 3.8 1.4 1.4 4.2-4.2c1.2-1.2 1.9-2.9 1.9-4.6s-.7-3.4-1.9-4.6Z"/>
</svg>